<?xml version="1.0" encoding="UTF-8" standalone="no"?>
<!DOCTYPE svg PUBLIC "-//W3C//DTD SVG 1.1//EN" "http://www.w3.org/Graphics/SVG/1.1/DTD/svg11.dtd">
<svg width="100%" height="100%" viewBox="0 0 179 172" version="1.1" xmlns="http://www.w3.org/2000/svg" xmlns:xlink="http://www.w3.org/1999/xlink" xml:space="preserve" xmlns:serif="http://www.serif.com/" style="fill-rule:evenodd;clip-rule:evenodd;stroke-linejoin:round;stroke-miterlimit:2;">
    <g transform="matrix(1,0,0,1,-2884.6,1469.33)">
        <g transform="matrix(1,0,0,1,-403.252,-416.034)">
            <path d="M3326.59,-1053.18L3372.94,-966.235L3402.06,-1021.27L3402.18,-1021.21L3402.22,-1021.27L3408.73,-1021.27L3408.73,-894.198L3400.27,-894.198L3400.27,-975.547L3379.97,-937.187L3379.79,-937.281L3372.81,-924.106L3357.89,-952.267L3358.11,-952.267L3326.59,-1011.41L3326.59,-898.82C3326.71,-894.08 3327.28,-893.721 3329.64,-892.497C3332.47,-891.031 3344.06,-887.874 3344.06,-887.874L3344.06,-881.685L3294.3,-881.685L3294.3,-887.874C3294.3,-887.874 3305.89,-891.031 3308.72,-892.497C3310.73,-893.536 3311.44,-893.952 3311.68,-896.955L3311.68,-1032.79L3311.53,-1032.79C3311.53,-1040.8 3311.19,-1041.02 3307.36,-1042.49C3303.52,-1043.95 3287.85,-1047.11 3287.85,-1047.11L3287.85,-1053.3L3326.59,-1053.3L3326.59,-1053.18ZM3366.15,-1053.3L3466.18,-1053.3L3466.18,-1010.09L3459.99,-1010.09C3459.99,-1010.09 3456.83,-1025.77 3455.37,-1029.6C3454.28,-1032.43 3453.88,-1033.36 3450.52,-1033.65L3440.37,-1033.65L3440.37,-894.568C3440.81,-893.572 3441.57,-893.162 3442.85,-892.497C3445.69,-891.031 3457.27,-887.874 3457.27,-887.874L3457.27,-881.685L3404.21,-881.685L3404.21,-887.874C3404.21,-887.874 3415.8,-891.031 3418.63,-892.497C3419.6,-892.997 3420.26,-893.352 3420.72,-893.921L3420.72,-1033.65L3386.66,-1033.65L3386.66,-1033.49C3378.66,-1033.49 3378.43,-1033.15 3376.97,-1029.32C3375.5,-1025.49 3372.34,-1009.81 3372.34,-1009.81L3366.15,-1009.81L3366.15,-1053.3Z" style="fill:white;"/>
        </g>
    </g>
</svg>
